<svg xmlns="http://www.w3.org/2000/svg" viewBox="0 0 308 170" role="img" aria-labelledby="title desc">
  <title id="title">Prediction game preview</title>
  <desc id="desc">A stylized football prediction card with a phone and pitch colors.</desc>
  <defs>
    <linearGradient id="sky" x1="0" x2="1" y1="0" y2="1">
      <stop offset="0" stop-color="#121212"/>
      <stop offset=".42" stop-color="#121212"/>
      <stop offset=".43" stop-color="#2f96ed"/>
      <stop offset="1" stop-color="#0d73d8"/>
    </linearGradient>
    <linearGradient id="pitch" x1="0" x2="1">
      <stop offset="0" stop-color="#29df86"/>
      <stop offset="1" stop-color="#69ff7f"/>
    </linearGradient>
  </defs>
  <rect width="308" height="170" fill="url(#sky)"/>
  <path d="M170 170 232 44h76v126Z" fill="#36eb81"/>
  <path d="M0 68c22 4 30 15 28 29L0 113Z" fill="#5bf28f"/>
  <path d="M141 170 201 0h-36L86 170Z" fill="#2d8fe6"/>
  <g transform="translate(94 55) rotate(4)">
    <rect x="0" y="0" width="132" height="92" rx="13" fill="#222326"/>
    <rect x="10" y="12" width="112" height="68" rx="8" fill="#2d2e31"/>
    <circle cx="27" cy="44" r="8" fill="#e3a071"/>
    <circle cx="103" cy="44" r="8" fill="#5b9cea"/>
    <rect x="47" y="24" width="38" height="8" rx="4" fill="#44464b"/>
    <rect x="47" y="56" width="38" height="8" rx="4" fill="#44464b"/>
    <rect x="39" y="39" width="54" height="16" rx="5" fill="#1c1d1f"/>
    <circle cx="58" cy="47" r="3" fill="#f7f7f7"/>
    <circle cx="67" cy="47" r="3" fill="#28d981"/>
    <circle cx="76" cy="47" r="3" fill="#f7f7f7"/>
    <text x="65" y="50" text-anchor="middle" font-family="Arial, sans-serif" font-size="9" font-weight="700" fill="#f6f7f8">2 - 1</text>
    <circle cx="114" cy="14" r="2" fill="#6f747d"/>
    <rect x="103" y="14" width="7" height="3" rx="1.5" fill="#6f747d"/>
    <rect x="31" y="75" width="70" height="6" rx="3" fill="#424449"/>
  </g>
  <g transform="translate(132 47)">
    <path d="M0 0 12 8 9 19-5 17-10 7Z" fill="#eaff46"/>
    <path d="m2 2 8 6-3 7-9-1-5-6Z" fill="#f4ff68"/>
  </g>
  <g transform="translate(284 103)">
    <path d="M0 0 26-14 44 1 31 22 4 24Z" fill="#3b3d41"/>
    <path d="m8 5 22-12 11 9-15 13-19 3Z" fill="#8d9299"/>
  </g>
</svg>
